<svg width="32" height="32" viewBox="0 0 32 32" fill="none" xmlns="http://www.w3.org/2000/svg">
<path d="M25.566 2.43301H6.43298C4.23298 2.43301 2.43298 4.23301 2.43298 6.43301V25.568C2.43298 27.768 4.23298 29.568 6.43298 29.568H25.568C27.768 29.568 29.568 27.768 29.568 25.568V6.43301C29.566 4.23301 27.768 2.43301 25.566 2.43301ZM25.309 16.916H22.089V28.566H17.271V16.916H14.861V12.9H17.271V10.49C17.271 7.21401 18.631 5.26501 22.501 5.26501H25.718V9.28001H23.706C22.202 9.28001 22.102 9.84301 22.102 10.89L22.089 12.9H25.734L25.309 16.916Z" fill="white"/>
</svg>
