<svg width="32" height="32" viewBox="0 0 32 32" fill="none" xmlns="http://www.w3.org/2000/svg">
<path fill-rule="evenodd" clip-rule="evenodd" d="M1.75 14.4167C1.75 8.44592 1.75 5.45975 3.60567 3.60567C5.45975 1.75 8.44592 1.75 14.4167 1.75H17.5833C23.5541 1.75 26.5402 1.75 28.3943 3.60567C30.25 5.45975 30.25 8.44592 30.25 14.4167V17.5833C30.25 23.5541 30.25 26.5402 28.3943 28.3943C26.5402 30.25 23.5541 30.25 17.5833 30.25H14.4167C8.44592 30.25 5.45975 30.25 3.60567 28.3943C1.75 26.5402 1.75 23.5541 1.75 17.5833V14.4167ZM25.5 8.875C25.5 9.50489 25.2498 10.109 24.8044 10.5544C24.359 10.9998 23.7549 11.25 23.125 11.25C22.4951 11.25 21.891 10.9998 21.4456 10.5544C21.0002 10.109 20.75 9.50489 20.75 8.875C20.75 8.24511 21.0002 7.64102 21.4456 7.19562C21.891 6.75022 22.4951 6.5 23.125 6.5C23.7549 6.5 24.359 6.75022 24.8044 7.19562C25.2498 7.64102 25.5 8.24511 25.5 8.875ZM19.1667 17.5833C19.1667 18.4232 18.833 19.2286 18.2392 19.8225C17.6453 20.4164 16.8399 20.75 16 20.75C15.1601 20.75 14.3547 20.4164 13.7608 19.8225C13.167 19.2286 12.8333 18.4232 12.8333 17.5833C12.8333 16.7435 13.167 15.938 13.7608 15.3442C14.3547 14.7503 15.1601 14.4167 16 14.4167C16.8399 14.4167 17.6453 14.7503 18.2392 15.3442C18.833 15.938 19.1667 16.7435 19.1667 17.5833ZM22.3333 17.5833C22.3333 19.263 21.6661 20.8739 20.4783 22.0617C19.2906 23.2494 17.6797 23.9167 16 23.9167C14.3203 23.9167 12.7094 23.2494 11.5217 22.0617C10.3339 20.8739 9.66667 19.263 9.66667 17.5833C9.66667 15.9036 10.3339 14.2927 11.5217 13.105C12.7094 11.9173 14.3203 11.25 16 11.25C17.6797 11.25 19.2906 11.9173 20.4783 13.105C21.6661 14.2927 22.3333 15.9036 22.3333 17.5833Z" fill="white"/>
</svg>
