<svg width="32" height="32" viewBox="0 0 32 32" fill="none" xmlns="http://www.w3.org/2000/svg">
<path d="M27 9.33466H5C4.44772 9.33466 4 9.78237 4 10.3347C4 10.8869 4.44772 11.3347 5 11.3347H27C27.5523 11.3347 28 10.8869 28 10.3347C28 9.78237 27.5523 9.33466 27 9.33466Z" fill="white"/>
<path d="M23 15.0013H5C4.44772 15.0013 4 15.4491 4 16.0013C4 16.5536 4.44772 17.0013 5 17.0013H23C23.5523 17.0013 24 16.5536 24 16.0013C24 15.4491 23.5523 15.0013 23 15.0013Z" fill="white"/>
<path d="M27 20.6653H5C4.44772 20.6653 4 21.1131 4 21.6653C4 22.2176 4.44772 22.6653 5 22.6653H27C27.5523 22.6653 28 22.2176 28 21.6653C28 21.1131 27.5523 20.6653 27 20.6653Z" fill="white"/>
</svg>
